# xmcd
#
# Track frame offsets:
#	150
#	14290
#	27018
#	38490
#	51265
#	68783
#	80525
#	94128
#	109275
#	120200
#	130825
#	150153
#	164695
#	177048
#	190745
#	202968
#	215323
#	228300
#	243163
#	252758
#	267988
#	283670
#
# Disc length: 3993 seconds
# Revision: 6
# Processed by: cddbd v1.5.2PL0 Copyright (c) Steve Scherf et al.
# Submitted via: dBpowerAMP V12.0
#
DISCID=1a0f9716
DTITLE=Various Artist - Contemporary Country The Mid 70s
DYEAR=1992
DGENRE=Country
TTITLE0=George Jones - The Grand Tour
TTITLE1=Gary Stewart - She's Actin Single I'm Drinkin Doubles
TTITLE2=Loretta Lynn and Conway Twitty - Louisiana Woman  Mississippi Man
TTITLE3=Don Williams - You're My Best Friend
TTITLE4=Emmylou Harris - Together Again
TTITLE5=Freddy Fender - Before The Next Teardrop Falls
TTITLE6=Mickey Gilley - Don't The Girls All Get Prettier At Closing Time
TTITLE7=BJ Thomas - Hey Won't You Play Another Somebody Done Somebody Wrong Song
TTITLE8=Tanya Tucker - Would You Lay With Me In A Field Of Stone
TTITLE9=Willie Nelson - Blue Eyes Crying In The Rain
TTITLE10=Marty Robbins - El Paso City
TTITLE11=Glen Campbell - Rhinestone Cowboy
TTITLE12=Charlie Rich - The Most Beautiful Girl
TTITLE13=Conway Twitty - You've Never Been This Far Before
TTITLE14=Dolly Parton - Jolene
TTITLE15=Merle Haggard - If We Make It Through December
TTITLE16=Waylon Jennings - Are You Sure Hank Done It This Way
TTITLE17=Jeanne Pruett - Satin Sheets
TTITLE18=Tom T Hall - I Love
TTITLE19=Jessi Colter - I'm Not Lisa
TTITLE20=Don Williams - Til The Rivers All Run Dry
TTITLE21=Narvel Felts - Reconsider Me
EXTD=
EXTT0=
EXTT1=
EXTT2=
EXTT3=
EXTT4=
EXTT5=
EXTT6=
EXTT7=
EXTT8=
EXTT9=
EXTT10=
EXTT11=
EXTT12=
EXTT13=
EXTT14=
EXTT15=
EXTT16=
EXTT17=
EXTT18=
EXTT19=
EXTT20=
EXTT21=
PLAYORDER=
